<svg version="1.1" id="Layer_1" xmlns="http://www.w3.org/2000/svg" xmlns:xlink="http://www.w3.org/1999/xlink" x="0px" y="0px"
	 width="100%" viewBox="0 0 500 500" enable-background="new 0 0 500 500" xml:space="preserve">
<path fill="#FEFEFE" opacity="1.000000" stroke="none" 
	d="
M322.000000,501.000000 
	C214.666687,501.000000 107.833382,501.000000 1.000057,501.000000 
	C1.000038,334.333405 1.000038,167.666794 1.000019,1.000147 
	C167.666565,1.000098 334.333130,1.000098 500.999756,1.000049 
	C500.999847,167.666519 500.999847,334.333038 500.999939,500.999786 
	C441.500000,501.000000 382.000000,501.000000 322.000000,501.000000 
M164.009293,358.049042 
	C164.009293,358.049042 164.133789,358.114044 163.366669,358.035645 
	C160.758850,359.356079 157.818710,360.276245 155.626053,362.096741 
	C152.787994,364.453033 151.195465,364.309723 148.774475,361.459106 
	C143.890671,355.708679 137.614243,353.140045 129.106232,355.219757 
	C127.082703,355.179382 125.059174,355.139008 122.500633,354.482391 
	C112.854668,352.155121 106.752701,358.464050 100.143997,363.850983 
	C94.164871,357.505981 87.264755,353.559631 78.266647,353.930023 
	C73.649689,354.120056 68.989998,353.282440 64.373962,353.479492 
	C62.214848,353.571655 60.113461,355.015930 57.353912,355.990479 
	C56.603302,356.330322 55.852692,356.670166 54.367504,357.105530 
	C53.245281,358.999786 51.240582,360.850372 51.144371,362.795380 
	C50.529663,375.222382 50.228088,387.669250 50.117115,400.112183 
	C50.100555,401.969513 51.194424,404.261749 52.520958,405.628265 
	C56.914135,410.153931 61.221325,412.498291 68.273773,408.897766 
	C72.766914,406.603882 75.567039,405.179047 75.312805,399.371918 
	C77.077286,398.011108 78.661781,396.223663 80.647018,395.386200 
	C83.900070,394.013855 87.431885,393.315857 90.812439,392.228699 
	C94.692986,390.980774 99.082588,392.623627 99.952332,395.752930 
	C101.776375,402.315826 109.332657,408.549652 116.665573,409.000397 
	C117.107727,409.002380 117.549889,409.004364 118.178604,409.797699 
	C125.990540,413.448975 142.287857,409.917267 148.506165,402.480835 
	C151.269302,399.176392 152.979309,400.356323 155.483444,401.993378 
	C159.726624,404.767365 163.869720,407.780670 168.392380,410.008118 
	C171.049530,411.316803 174.553711,412.819763 177.861664,409.015961 
	C179.573578,409.014404 181.285477,409.012848 183.071381,409.620087 
	C184.047791,409.412567 185.024200,409.205078 186.739182,408.988220 
	C188.159454,408.655273 189.579727,408.322327 191.393509,408.492157 
	C203.660034,405.586090 209.659271,389.294250 201.723679,379.640381 
	C199.937866,377.467865 200.369904,376.544708 201.536438,374.684479 
	C203.763992,371.132385 203.623367,367.608582 201.088272,364.061035 
	C197.286667,358.741180 192.536316,354.424622 186.015381,353.842346 
	C183.312820,353.601013 179.511597,351.366943 176.359970,355.191650 
	C175.918304,355.163025 175.476624,355.134399 174.559616,354.510254 
	C167.086929,353.480164 165.333969,354.090759 164.009293,358.049042 
M104.664848,265.384796 
	C123.912796,269.594391 143.160751,273.803986 162.408142,278.013458 
	C163.816406,271.447479 163.478210,270.868622 158.385559,270.142670 
	C139.941299,267.513306 121.500107,264.862549 102.470848,261.882935 
	C96.219917,261.014618 89.968987,260.146301 83.718063,259.277985 
	C83.623802,259.884277 83.529541,260.490570 83.435287,261.096863 
	C90.289757,262.396729 97.144234,263.696594 104.664848,265.384796 
M100.716675,277.238617 
	C121.339294,281.741669 141.961914,286.244720 162.837250,290.802948 
	C162.837250,287.967194 162.837250,285.885651 162.837250,283.545990 
	C152.606827,282.012573 142.635681,280.471832 132.649689,279.034424 
	C122.984932,277.643250 113.304863,276.358368 103.592056,274.769562 
	C103.321075,274.638550 103.091965,274.699890 102.209206,274.781067 
	C101.499115,274.687988 100.789024,274.594910 99.446228,274.157837 
	C92.916039,273.199768 86.385849,272.241669 79.855659,271.283600 
	C79.769569,271.870880 79.683479,272.458160 79.597389,273.045441 
	C86.400558,274.343323 93.203728,275.641235 100.716675,277.238617 
M112.297302,286.778809 
	C103.716751,285.323822 95.136200,283.868835 86.555641,282.413849 
	C86.468506,282.977478 86.381378,283.541107 86.294243,284.104767 
	C94.848816,285.760590 103.403397,287.416412 112.619873,289.470245 
	C117.990143,290.597595 123.360405,291.724976 128.730682,292.852325 
	C128.657211,293.297852 128.583740,293.743378 128.510284,294.188904 
	C104.767738,294.188904 81.025192,294.188904 57.034378,294.188904 
	C57.034378,302.942139 57.034378,311.306702 57.034378,319.814880 
	C57.973164,319.881927 58.617573,319.968048 59.262005,319.968201 
	C87.094475,319.974884 114.927216,320.046143 142.759293,319.942719 
	C156.248108,319.892609 164.570770,309.782806 162.732330,295.671600 
	C146.214798,292.838715 129.594467,289.988220 112.297302,286.778809 
M361.982941,228.764679 
	C370.518951,228.876892 379.054962,228.989105 388.361115,229.357880 
	C390.900360,228.888840 393.439606,228.419800 396.031281,227.941055 
	C396.408295,219.378815 396.650238,211.393234 397.146362,203.423462 
	C397.527618,197.299286 395.115509,193.150497 389.330780,191.010666 
	C384.884979,189.366135 382.123383,185.997101 381.193268,181.579056 
	C378.251709,167.606873 381.060791,154.649445 389.864960,143.457993 
	C396.415436,135.131302 404.621033,135.321335 411.279541,143.630112 
	C419.166168,153.471283 421.610229,165.070984 420.600891,177.422241 
	C420.045166,184.222885 416.867706,189.341293 410.085907,191.847733 
	C406.131317,193.309280 403.938324,196.370148 403.900299,200.658798 
	C403.829712,208.621933 403.880096,216.586121 403.880096,225.003769 
	C429.329132,216.297028 457.733948,186.246521 449.893982,142.328903 
	C444.365112,111.357468 415.002167,79.730820 370.395599,82.835846 
	C338.032074,85.088646 306.220612,115.136536 303.959686,147.114487 
	C301.421051,183.020294 322.853180,219.162521 350.043304,224.485535 
	C350.367249,217.639191 350.744507,210.827621 350.994537,204.011398 
	C351.191711,198.636749 348.989960,194.774384 343.796234,192.683472 
	C338.414001,190.516647 335.188141,186.358688 334.508575,180.647247 
	C334.040070,176.709915 333.962738,172.655624 334.310120,168.706345 
	C335.024231,160.587372 336.085693,152.496597 337.140991,144.412079 
	C337.335449,142.922272 338.175232,141.516693 338.717163,140.072250 
	C339.253937,140.190567 339.790680,140.308884 340.327454,140.427200 
	C340.327454,150.837570 340.327454,161.247940 340.327454,171.952362 
	C342.406342,172.178177 343.784485,172.327881 344.960236,172.455612 
	C346.069519,160.148422 347.142242,148.247009 348.214935,136.345581 
	C348.720215,136.310013 349.225494,136.274445 349.730774,136.238876 
	C352.464508,139.701233 350.657318,144.089188 351.077698,147.978439 
	C351.541779,152.272064 351.479767,156.627457 351.549072,160.957520 
	C351.617615,165.237534 351.564056,169.519501 351.564056,173.879333 
	C353.868774,173.879333 355.275360,173.879333 357.874237,173.879333 
	C357.874237,162.676346 357.833069,151.719482 357.920868,140.763672 
	C357.933289,139.212769 358.573792,137.666916 358.923584,136.118729 
	C359.542694,136.205826 360.161774,136.292923 360.780884,136.380020 
	C361.753723,148.704910 362.726593,161.029800 363.697388,173.328629 
	C367.242188,173.959030 368.344818,172.781799 368.334778,169.706909 
	C368.308136,161.545013 368.504761,153.381805 368.670502,145.220306 
	C368.704224,143.559525 368.991547,141.903900 369.290192,138.998611 
	C370.665161,140.728561 371.484833,141.278992 371.525604,141.882065 
	C372.366425,154.329437 373.440643,166.775253 373.732178,179.238617 
	C373.851166,184.325699 371.523804,189.320801 366.343719,191.387512 
	C357.403168,194.954544 355.813293,201.602051 357.303162,210.840851 
	C357.530273,215.571014 357.647034,220.311066 358.068878,225.023819 
	C358.163940,226.085632 359.322998,227.052216 360.428986,228.348526 
	C360.744720,228.283920 361.060455,228.219315 361.982941,228.764679 
M157.382385,221.089432 
	C130.581802,221.089203 103.780869,221.008591 76.980766,221.122269 
	C63.344593,221.180115 54.874783,231.522552 57.322273,245.769028 
	C63.394283,246.513031 69.713516,247.740921 76.064957,247.939758 
	C82.602417,248.144424 89.169548,247.077850 95.726715,247.035645 
	C116.533760,246.901627 137.342209,246.985977 158.150116,246.985947 
	C159.749664,246.985947 161.349228,246.985962 162.919952,246.985962 
	C162.919952,238.112534 162.919952,229.847473 162.919952,221.089432 
	C161.248260,221.089432 159.801346,221.089432 157.382385,221.089432 
M377.313293,269.143341 
	C375.303680,275.760162 375.035095,282.258514 378.837433,288.394775 
	C384.329407,297.257782 393.590424,294.996765 401.586334,295.718567 
	C401.856384,296.352905 402.084900,296.645111 402.091034,296.941895 
	C402.153107,299.940002 402.226471,302.939209 402.204163,305.937408 
	C402.165375,311.148865 400.606049,312.747742 395.351807,312.825104 
	C390.250671,312.900208 385.147583,312.841400 379.976257,312.841400 
	C379.976257,315.521667 379.976257,317.627197 379.976257,319.991272 
	C381.540802,319.991272 382.857971,319.993195 384.175110,319.990967 
	C389.340607,319.982208 394.514862,320.158752 399.669556,319.918030 
	C407.086670,319.571503 410.930420,315.865723 411.394928,308.340149 
	C411.763824,302.363647 411.566772,296.350800 411.578369,290.353973 
	C411.597931,280.237244 411.583740,270.120453 411.583740,259.535492 
	C404.825562,259.535492 398.535767,259.418274 392.252289,259.567932 
	C385.755371,259.722626 380.757568,262.557709 377.313293,269.143341 
M132.822784,260.361908 
	C144.980301,262.773346 157.137802,265.184784 169.583939,267.653473 
	C169.583939,271.051544 169.575333,274.698303 169.585449,278.345001 
	C169.628387,293.818573 172.361267,296.370117 187.761703,295.307343 
	C188.076492,295.285583 188.378799,295.083221 188.650589,294.979065 
	C188.650589,292.716705 188.650589,290.476868 188.650589,288.178864 
	C184.530746,287.749390 179.308395,289.587128 179.112396,282.986450 
	C178.955338,277.697174 179.080643,272.399536 179.080643,266.840088 
	C182.501251,266.676025 185.587189,266.528046 188.710129,266.378296 
	C188.710129,263.994293 188.710129,261.912598 188.710129,259.281311 
	C185.395081,259.281311 182.328400,259.281311 178.841278,259.281311 
	C178.841278,254.654358 178.841278,250.568008 178.841278,246.360382 
	C175.610596,246.360382 172.842621,246.360382 169.430145,246.360382 
	C169.430145,250.750397 169.430145,254.967316 169.430145,260.047577 
	C140.289322,256.288696 111.883698,252.624664 83.478065,248.960632 
	C83.398949,249.492966 83.319839,250.025314 83.240723,250.557648 
	C99.487358,253.775665 115.734001,256.993683 132.822784,260.361908 
M250.318527,259.730103 
	C240.972748,261.580231 236.423859,267.357391 236.356110,277.462585 
	C236.294540,286.644501 240.998947,293.896332 248.913116,294.754059 
	C256.425385,295.568207 264.095093,294.929169 271.656555,294.929169 
	C271.656555,278.690582 271.656555,262.617859 271.656555,246.411514 
	C268.568298,246.411514 265.820923,246.411514 262.544434,246.411514 
	C262.544434,250.732697 262.544434,254.828918 262.544434,259.620697 
	C258.413788,259.620697 254.794540,259.620697 250.318527,259.730103 
M372.087860,291.230835 
	C372.087860,276.329376 372.087860,261.427917 372.087860,246.477234 
	C368.608551,246.477234 365.866333,246.477234 362.638672,246.477234 
	C362.638672,250.862518 362.638672,254.947540 362.638672,259.618866 
	C358.516571,259.618866 354.854095,259.335052 351.250092,259.673706 
	C341.608185,260.579742 336.336273,267.346649 336.562500,278.134399 
	C336.775421,288.289459 342.187195,294.597595 351.656891,295.186035 
	C357.461182,295.546661 363.304688,295.227936 369.124542,295.408569 
	C371.647522,295.486877 372.377350,294.411377 372.087860,291.230835 
M447.824371,292.313965 
	C447.767242,291.037109 447.710144,289.760254 447.631927,288.011658 
	C442.332733,288.011658 437.368652,288.131165 432.413391,287.973083 
	C428.583099,287.850891 426.178223,286.087921 426.572540,281.316101 
	C433.626251,281.316101 440.547363,281.316101 447.497925,281.316101 
	C447.497925,278.626923 447.497925,276.411591 447.497925,273.720825 
	C440.295410,273.720825 433.417877,273.720825 426.364716,273.720825 
	C426.396698,268.766724 428.982666,267.048553 433.002472,266.975647 
	C437.785339,266.888855 442.570953,266.955200 447.486389,266.955200 
	C447.486389,264.204865 447.486389,262.012817 447.486389,259.797699 
	C441.333374,259.797699 435.496185,259.381775 429.741516,259.893555 
	C420.728821,260.695129 415.886566,267.175720 415.917389,277.443878 
	C415.947327,287.411255 421.170105,294.221100 429.911560,295.040131 
	C435.030670,295.519775 440.219513,295.376831 445.371368,295.261688 
	C446.208374,295.242981 447.016022,293.910431 447.824371,292.313965 
M314.498901,259.089111 
	C320.263947,259.089111 326.028992,259.089111 331.745972,259.089111 
	C331.745972,254.522064 331.745972,250.489426 331.745972,246.225311 
	C316.417175,246.225311 301.462494,246.030380 286.516663,246.309418 
	C279.292358,246.444305 275.798035,251.032028 276.229767,259.089508 
	C288.628571,259.089508 301.064026,259.089508 314.498901,259.089111 
M312.499725,282.812286 
	C300.396973,282.812286 288.294189,282.812286 276.224304,282.812286 
	C275.867432,291.389191 279.305817,295.249176 287.223053,295.327942 
	C298.704437,295.442200 310.187836,295.353973 321.670380,295.352386 
	C325.086426,295.351929 328.502502,295.352325 331.775757,295.352325 
	C331.775757,290.765167 331.775757,286.862610 331.775757,282.804810 
	C325.457214,282.804810 319.478424,282.804810 312.499725,282.812286 
M218.723022,270.375946 
	C218.385834,266.135040 219.085022,260.743500 213.299072,260.097015 
	C206.667664,259.356079 199.889862,259.925262 193.187592,259.925262 
	C193.187592,271.813263 193.187592,283.390869 193.187592,295.035583 
	C196.288101,295.035583 199.178543,295.035583 202.519287,295.035583 
	C202.519287,285.332855 202.519287,275.948303 202.519287,266.632385 
	C209.445694,265.898804 209.445694,265.898804 210.342590,274.397583 
	C212.086472,274.397583 213.898987,274.279266 215.689697,274.426300 
	C218.149857,274.628296 219.029099,273.538147 218.723022,270.375946 
M231.524002,295.237274 
	C231.524002,283.440796 231.524002,271.644318 231.524002,259.874451 
	C228.800980,259.874451 225.926575,259.874451 222.979248,259.874451 
	C222.979248,271.768188 222.979248,283.309174 222.979248,295.340729 
	C225.647369,295.340729 228.087265,295.340729 231.524002,295.237274 
M302.415070,274.007935 
	C297.174835,274.352936 291.934601,274.697968 286.694366,275.042999 
	C286.703094,275.520020 286.711823,275.997070 286.720551,276.474121 
	C296.625977,277.020294 306.528564,277.675690 316.441498,277.934723 
	C317.378204,277.959198 318.379974,275.493927 319.351562,274.184601 
	C318.962158,273.779907 318.572754,273.375244 318.183319,272.970551 
	C313.244904,273.306793 308.306488,273.643036 302.415070,274.007935 
M298.159637,264.758301 
	C294.946869,265.015961 291.734100,265.273651 288.521362,265.531311 
	C288.558258,266.055054 288.595184,266.578796 288.632111,267.102539 
	C298.520264,267.663422 308.408417,268.224304 318.486084,268.795929 
	C318.942078,266.006134 319.882446,263.393341 315.989716,263.539154 
	C310.342133,263.750671 304.705139,264.244934 298.159637,264.758301 
M228.354980,246.167160 
	C226.602173,246.167160 224.849365,246.167160 223.018433,246.167160 
	C223.018433,249.428528 223.018433,252.136108 223.018433,254.837708 
	C226.221405,254.837708 229.108505,254.837708 232.298599,254.837708 
	C232.298599,252.593719 232.647141,250.540649 232.162628,248.707794 
	C231.889557,247.674789 230.243698,247.004684 228.354980,246.167160 
z"/>
<path fill="#4153B4" opacity="1.000000" stroke="none" 
	d="
M357.481934,210.003250 
	C355.813293,201.602051 357.403168,194.954544 366.343719,191.387512 
	C371.523804,189.320801 373.851166,184.325699 373.732178,179.238617 
	C373.440643,166.775253 372.366425,154.329437 371.525604,141.882065 
	C371.484833,141.278992 370.665161,140.728561 369.290192,138.998611 
	C368.991547,141.903900 368.704224,143.559525 368.670502,145.220306 
	C368.504761,153.381805 368.308136,161.545013 368.334778,169.706909 
	C368.344818,172.781799 367.242188,173.959030 363.697388,173.328629 
	C362.726593,161.029800 361.753723,148.704910 360.780884,136.380020 
	C360.161774,136.292923 359.542694,136.205826 358.923584,136.118729 
	C358.573792,137.666916 357.933289,139.212769 357.920868,140.763672 
	C357.833069,151.719482 357.874237,162.676346 357.874237,173.879333 
	C355.275360,173.879333 353.868774,173.879333 351.564056,173.879333 
	C351.564056,169.519501 351.617615,165.237534 351.549072,160.957520 
	C351.479767,156.627457 351.541779,152.272064 351.077698,147.978439 
	C350.657318,144.089188 352.464508,139.701233 349.730774,136.238876 
	C349.225494,136.274445 348.720215,136.310013 348.214935,136.345581 
	C347.142242,148.247009 346.069519,160.148422 344.960236,172.455612 
	C343.784485,172.327881 342.406342,172.178177 340.327454,171.952362 
	C340.327454,161.247940 340.327454,150.837570 340.327454,140.427200 
	C339.790680,140.308884 339.253937,140.190567 338.717163,140.072250 
	C338.175232,141.516693 337.335449,142.922272 337.140991,144.412079 
	C336.085693,152.496597 335.024231,160.587372 334.310120,168.706345 
	C333.962738,172.655624 334.040070,176.709915 334.508575,180.647247 
	C335.188141,186.358688 338.414001,190.516647 343.796234,192.683472 
	C348.989960,194.774384 351.191711,198.636749 350.994537,204.011398 
	C350.744507,210.827621 350.367249,217.639191 350.043304,224.485535 
	C322.853180,219.162521 301.421051,183.020294 303.959686,147.114487 
	C306.220612,115.136536 338.032074,85.088646 370.395599,82.835846 
	C415.002167,79.730820 444.365112,111.357468 449.893982,142.328903 
	C457.733948,186.246521 429.329132,216.297028 403.880096,225.003769 
	C403.880096,216.586121 403.829712,208.621933 403.900299,200.658798 
	C403.938324,196.370148 406.131317,193.309280 410.085907,191.847733 
	C416.867706,189.341293 420.045166,184.222885 420.600891,177.422241 
	C421.610229,165.070984 419.166168,153.471283 411.279541,143.630112 
	C404.621033,135.321335 396.415436,135.131302 389.864960,143.457993 
	C381.060791,154.649445 378.251709,167.606873 381.193268,181.579056 
	C382.123383,185.997101 384.884979,189.366135 389.330780,191.010666 
	C395.115509,193.150497 397.527618,197.299286 397.146362,203.423462 
	C396.650238,211.393234 396.408295,219.378815 396.031281,227.941055 
	C393.439606,228.419800 390.900360,228.888840 387.462769,229.205109 
	C378.168365,228.753128 369.772278,228.453918 361.376190,228.154709 
	C361.060455,228.219315 360.744720,228.283920 360.207733,227.778290 
	C359.656036,222.858459 359.421478,218.498230 358.940582,214.165359 
	C358.782562,212.741562 357.986328,211.388596 357.481934,210.003250 
z"/>
<path fill="#040404" opacity="1.000000" stroke="none" 
	d="
M112.974136,287.137726 
	C129.594467,289.988220 146.214798,292.838715 162.732330,295.671600 
	C164.570770,309.782806 156.248108,319.892609 142.759293,319.942719 
	C114.927216,320.046143 87.094475,319.974884 59.262005,319.968201 
	C58.617573,319.968048 57.973164,319.881927 57.034378,319.814880 
	C57.034378,311.306702 57.034378,302.942139 57.034378,294.188904 
	C81.025192,294.188904 104.767738,294.188904 128.510284,294.188904 
	C128.583740,293.743378 128.657211,293.297852 128.730682,292.852325 
	C123.360405,291.724976 117.990143,290.597595 112.349243,289.000244 
	C112.377121,288.066040 112.675629,287.601898 112.974136,287.137726 
z"/>
<path fill="#030303" opacity="1.000000" stroke="none" 
	d="
M157.868408,221.089432 
	C159.801346,221.089432 161.248260,221.089432 162.919952,221.089432 
	C162.919952,229.847473 162.919952,238.112534 162.919952,246.985962 
	C161.349228,246.985962 159.749664,246.985947 158.150116,246.985947 
	C137.342209,246.985977 116.533760,246.901627 95.726715,247.035645 
	C89.169548,247.077850 82.602417,248.144424 76.064957,247.939758 
	C69.713516,247.740921 63.394283,246.513031 57.322273,245.769028 
	C54.874783,231.522552 63.344593,221.180115 76.980766,221.122269 
	C103.780869,221.008591 130.581802,221.089203 157.868408,221.089432 
z"/>
<path fill="#4454B2" opacity="1.000000" stroke="none" 
	d="
M123.035645,355.098633 
	C125.059174,355.139008 127.082703,355.179382 129.841660,355.376831 
	C140.401657,356.493988 147.006592,361.572357 150.250214,371.311676 
	C150.546921,373.474304 150.861069,375.253143 151.108047,377.469971 
	C150.996063,380.280823 150.951248,382.653656 150.781647,385.244385 
	C150.701324,385.780487 150.745789,386.098724 150.527618,386.685272 
	C148.801697,389.898590 147.338379,392.843567 145.579834,395.964172 
	C133.170944,406.060303 116.912445,405.161560 105.043777,393.960449 
	C105.013039,394.003815 105.092651,393.932983 105.044754,393.608643 
	C104.338997,392.180817 103.681137,391.077301 103.010544,389.985291 
	C102.997810,389.996765 103.029388,389.987000 103.036606,389.657593 
	C102.766296,388.751587 102.488754,388.174957 102.203720,387.427917 
	C102.196236,387.257507 101.970840,387.001373 101.997787,386.628357 
	C101.912254,385.518341 101.799759,384.781372 101.749802,383.680664 
	C101.670753,382.852966 101.529182,382.388947 101.466446,381.524170 
	C101.456696,379.775085 101.368126,378.426727 101.471527,376.721497 
	C101.685654,375.562256 101.707817,374.759918 101.822495,373.601990 
	C102.212082,371.827057 102.509140,370.407745 102.982933,368.673248 
	C104.867058,361.974945 109.718590,358.935791 115.473732,356.989166 
	C117.926849,356.159363 120.511024,355.717041 123.035645,355.098633 
M134.603394,386.964752 
	C134.680420,386.647858 134.757431,386.330933 135.101730,385.420624 
	C135.142136,384.784149 135.182541,384.147644 135.717453,382.787598 
	C135.149353,378.857208 134.581268,374.926788 134.002213,370.279388 
	C128.570053,364.242706 121.324326,364.955505 117.891830,371.879852 
	C117.891830,371.879852 117.889114,371.890411 117.400734,372.246124 
	C117.309822,372.826996 117.218903,373.407867 116.935471,374.889252 
	C117.255043,378.668976 117.574615,382.448669 117.973274,386.924316 
	C121.968918,392.394104 125.788399,393.192932 132.583542,389.696289 
	C133.121658,388.849548 133.659790,388.002777 134.123734,387.037476 
	C134.123734,387.037476 134.140167,387.176361 134.603394,386.964752 
z"/>
<path fill="#4454B1" opacity="1.000000" stroke="none" 
	d="
M175.034958,355.105774 
	C175.476624,355.134399 175.918304,355.163025 177.084122,355.195862 
	C186.121689,355.879730 194.384232,356.655182 198.063858,366.328064 
	C198.160126,367.112305 198.296738,367.550201 198.405212,368.356995 
	C198.267258,369.200928 198.157440,369.675995 197.582031,370.117004 
	C191.796066,369.748962 186.063553,371.840210 181.725494,366.228058 
	C180.817703,365.053619 176.826187,366.114349 174.299393,366.462280 
	C173.779419,366.533844 172.999924,368.682678 173.106995,368.756165 
	C174.911896,369.994415 176.724777,371.379944 178.760040,372.092621 
	C184.072189,373.952698 189.493484,375.500977 195.052643,377.462463 
	C199.750320,381.078674 200.191711,385.812958 199.785461,390.813904 
	C199.814545,390.777893 199.722336,390.769562 199.515686,390.901672 
	C199.122513,391.332062 199.083862,391.648468 199.097565,392.246765 
	C198.944641,392.879303 198.887238,393.248016 198.598480,393.774963 
	C198.273407,394.285278 198.179688,394.637390 197.918732,395.196106 
	C197.500977,395.868927 197.250458,396.335144 196.736542,396.904236 
	C196.281326,397.320129 196.089478,397.633179 195.944443,397.959473 
	C195.991257,397.972687 195.921844,397.904480 195.591812,398.028931 
	C183.683121,405.406555 168.330521,404.468719 158.932861,395.579956 
	C158.087143,392.474213 157.348999,389.729279 156.500778,386.574951 
	C159.724564,386.381104 161.863770,386.252472 164.327545,386.321442 
	C166.732758,387.053650 170.164673,387.033051 170.653107,388.221863 
	C172.475937,392.658325 175.945740,392.387238 179.313766,392.005981 
	C181.126633,391.800751 182.792618,390.298004 184.524872,389.380676 
	C183.094528,388.242065 181.832962,386.625336 180.203720,386.050293 
	C174.180359,383.924225 168.035553,382.142242 161.633484,380.035278 
	C159.982590,376.876099 158.634628,373.912506 157.404633,370.598999 
	C157.465637,369.763824 157.408676,369.278625 157.528061,368.481720 
	C157.746094,367.457458 157.787781,366.744873 157.989960,365.720093 
	C160.144867,362.976624 162.139313,360.545319 164.133789,358.114014 
	C164.133789,358.114044 164.009293,358.049042 164.433899,358.054688 
	C168.250671,357.075470 171.642822,356.090637 175.034958,355.105774 
z"/>
<path fill="#0C0C0C" opacity="1.000000" stroke="none" 
	d="
M377.524109,268.815094 
	C380.757568,262.557709 385.755371,259.722626 392.252289,259.567932 
	C398.535767,259.418274 404.825562,259.535492 411.583740,259.535492 
	C411.583740,270.120453 411.597931,280.237244 411.578369,290.353973 
	C411.566772,296.350800 411.763824,302.363647 411.394928,308.340149 
	C410.930420,315.865723 407.086670,319.571503 399.669556,319.918030 
	C394.514862,320.158752 389.340607,319.982208 384.175110,319.990967 
	C382.857971,319.993195 381.540802,319.991272 379.976257,319.991272 
	C379.976257,317.627197 379.976257,315.521667 379.976257,312.841400 
	C385.147583,312.841400 390.250671,312.900208 395.351807,312.825104 
	C400.606049,312.747742 402.165375,311.148865 402.204163,305.937408 
	C402.226471,302.939209 402.153107,299.940002 402.091034,296.941895 
	C402.084900,296.645111 401.856384,296.352905 401.586334,295.718567 
	C393.590424,294.996765 384.329407,297.257782 378.837433,288.394775 
	C375.035095,282.258514 375.303680,275.760162 377.524109,268.815094 
M385.942841,274.856354 
	C385.917633,286.309143 390.421356,289.716736 401.926849,286.967651 
	C401.926849,280.404816 401.926849,273.851257 401.926849,267.339600 
	C390.729553,266.239136 387.806000,267.494293 385.942841,274.856354 
z"/>
<path fill="#4555B3" opacity="1.000000" stroke="none" 
	d="
M55.102074,357.010010 
	C55.852692,356.670166 56.603302,356.330322 58.132771,356.004913 
	C65.354958,356.028503 71.807083,356.253754 78.239372,355.991791 
	C86.190399,355.668030 92.044975,358.480164 95.220703,366.301819 
	C95.421524,366.868713 95.629974,367.159882 95.796181,367.714569 
	C95.856102,368.315979 95.958267,368.653870 95.997086,369.417725 
	C95.952606,371.564392 95.971458,373.285126 95.836288,375.298401 
	C95.575615,376.017700 95.468956,376.444489 95.185211,377.128296 
	C92.151680,384.598419 86.731110,387.499084 79.131912,387.214539 
	C76.110100,387.101410 73.060379,387.733948 69.718674,388.304626 
	C68.935341,392.459473 69.811867,398.033386 67.629005,399.776825 
	C65.004272,401.873230 59.776447,400.710449 55.520573,400.580170 
	C55.277695,385.804382 55.189884,371.407196 55.102074,357.010010 
M80.973907,373.958374 
	C80.973907,373.958374 80.895210,373.982574 81.461281,373.601410 
	C81.299026,372.397339 81.136765,371.193298 80.836105,369.749023 
	C80.836105,369.749023 80.909157,369.481567 80.796265,368.860474 
	C80.499992,368.582184 80.203728,368.303894 79.985184,368.031433 
	C79.985184,368.031433 79.947853,368.099854 79.835854,367.313538 
	C76.915932,367.171906 73.996010,367.030273 70.658485,367.049194 
	C70.658485,367.049194 70.214592,367.105194 69.448685,367.148438 
	C66.725891,370.274719 69.037369,373.078857 70.686531,376.317657 
	C70.907089,376.441315 71.127655,376.564972 71.749466,377.171173 
	C74.358513,377.903351 77.098808,379.538727 79.729195,375.930908 
	C80.130768,375.249390 80.532341,374.567871 80.973907,373.958374 
z"/>
<path fill="#0D0D0D" opacity="1.000000" stroke="none" 
	d="
M132.401703,260.286804 
	C115.734001,256.993683 99.487358,253.775665 83.240723,250.557648 
	C83.319839,250.025314 83.398949,249.492966 83.478065,248.960632 
	C111.883698,252.624664 140.289322,256.288696 169.430145,260.047577 
	C169.430145,254.967316 169.430145,250.750397 169.430145,246.360382 
	C172.842621,246.360382 175.610596,246.360382 178.841278,246.360382 
	C178.841278,250.568008 178.841278,254.654358 178.841278,259.281311 
	C182.328400,259.281311 185.395081,259.281311 188.710129,259.281311 
	C188.710129,261.912598 188.710129,263.994293 188.710129,266.378296 
	C185.587189,266.528046 182.501251,266.676025 179.080643,266.840088 
	C179.080643,272.399536 178.955338,277.697174 179.112396,282.986450 
	C179.308395,289.587128 184.530746,287.749390 188.650589,288.178864 
	C188.650589,290.476868 188.650589,292.716705 188.650589,294.979065 
	C188.378799,295.083221 188.076492,295.285583 187.761703,295.307343 
	C172.361267,296.370117 169.628387,293.818573 169.585449,278.345001 
	C169.575333,274.698303 169.583939,271.051544 169.583939,267.653473 
	C157.137802,265.184784 144.980301,262.773346 132.401703,260.286804 
z"/>
<path fill="#090909" opacity="1.000000" stroke="none" 
	d="
M250.746918,259.675415 
	C254.794540,259.620697 258.413788,259.620697 262.544434,259.620697 
	C262.544434,254.828918 262.544434,250.732697 262.544434,246.411514 
	C265.820923,246.411514 268.568298,246.411514 271.656555,246.411514 
	C271.656555,262.617859 271.656555,278.690582 271.656555,294.929169 
	C264.095093,294.929169 256.425385,295.568207 248.913116,294.754059 
	C240.998947,293.896332 236.294540,286.644501 236.356110,277.462585 
	C236.423859,267.357391 240.972748,261.580231 250.746918,259.675415 
M262.744629,269.970337 
	C262.533936,269.199860 262.572296,268.044586 262.072327,267.721039 
	C258.681824,265.526825 249.167191,268.045044 247.329285,271.498199 
	C242.754791,280.092987 247.156250,287.788544 256.772217,287.987579 
	C258.671539,288.026886 260.572357,287.993225 262.283691,287.993225 
	C262.544250,286.935730 262.686920,286.623077 262.688751,286.309570 
	C262.718872,281.170013 262.731262,276.030304 262.744629,269.970337 
z"/>
<path fill="#080808" opacity="1.000000" stroke="none" 
	d="
M372.086304,291.696564 
	C372.377350,294.411377 371.647522,295.486877 369.124542,295.408569 
	C363.304688,295.227936 357.461182,295.546661 351.656891,295.186035 
	C342.187195,294.597595 336.775421,288.289459 336.562500,278.134399 
	C336.336273,267.346649 341.608185,260.579742 351.250092,259.673706 
	C354.854095,259.335052 358.516571,259.618866 362.638672,259.618866 
	C362.638672,254.947540 362.638672,250.862518 362.638672,246.477234 
	C365.866333,246.477234 368.608551,246.477234 372.087860,246.477234 
	C372.087860,261.427917 372.087860,276.329376 372.086304,291.696564 
M346.163483,280.073456 
	C347.926208,287.385681 352.274292,289.327972 362.599121,287.379913 
	C362.599121,280.820160 362.599121,274.252808 362.599121,267.728577 
	C350.179291,265.926971 346.440918,268.593201 346.163483,280.073456 
z"/>
<path fill="#090909" opacity="1.000000" stroke="none" 
	d="
M447.830811,292.749573 
	C447.016022,293.910431 446.208374,295.242981 445.371368,295.261688 
	C440.219513,295.376831 435.030670,295.519775 429.911560,295.040131 
	C421.170105,294.221100 415.947327,287.411255 415.917389,277.443878 
	C415.886566,267.175720 420.728821,260.695129 429.741516,259.893555 
	C435.496185,259.381775 441.333374,259.797699 447.486389,259.797699 
	C447.486389,262.012817 447.486389,264.204865 447.486389,266.955200 
	C442.570953,266.955200 437.785339,266.888855 433.002472,266.975647 
	C428.982666,267.048553 426.396698,268.766724 426.364716,273.720825 
	C433.417877,273.720825 440.295410,273.720825 447.497925,273.720825 
	C447.497925,276.411591 447.497925,278.626923 447.497925,281.316101 
	C440.547363,281.316101 433.626251,281.316101 426.572540,281.316101 
	C426.178223,286.087921 428.583099,287.850891 432.413391,287.973083 
	C437.368652,288.131165 442.332733,288.011658 447.631927,288.011658 
	C447.710144,289.760254 447.767242,291.037109 447.830811,292.749573 
z"/>
<path fill="#090909" opacity="1.000000" stroke="none" 
	d="
M313.999207,259.089294 
	C301.064026,259.089508 288.628571,259.089508 276.229767,259.089508 
	C275.798035,251.032028 279.292358,246.444305 286.516663,246.309418 
	C301.462494,246.030380 316.417175,246.225311 331.745972,246.225311 
	C331.745972,250.489426 331.745972,254.522064 331.745972,259.089111 
	C326.028992,259.089111 320.263947,259.089111 313.999207,259.089294 
z"/>
<path fill="#030303" opacity="1.000000" stroke="none" 
	d="
M312.999695,282.808533 
	C319.478424,282.804810 325.457214,282.804810 331.775757,282.804810 
	C331.775757,286.862610 331.775757,290.765167 331.775757,295.352325 
	C328.502502,295.352325 325.086426,295.351929 321.670380,295.352386 
	C310.187836,295.353973 298.704437,295.442200 287.223053,295.327942 
	C279.305817,295.249176 275.867432,291.389191 276.224304,282.812286 
	C288.294189,282.812286 300.396973,282.812286 312.999695,282.808533 
z"/>
<path fill="#050505" opacity="1.000000" stroke="none" 
	d="
M218.722595,270.799438 
	C219.029099,273.538147 218.149857,274.628296 215.689697,274.426300 
	C213.898987,274.279266 212.086472,274.397583 210.342590,274.397583 
	C209.445694,265.898804 209.445694,265.898804 202.519287,266.632385 
	C202.519287,275.948303 202.519287,285.332855 202.519287,295.035583 
	C199.178543,295.035583 196.288101,295.035583 193.187592,295.035583 
	C193.187592,283.390869 193.187592,271.813263 193.187592,259.925262 
	C199.889862,259.925262 206.667664,259.356079 213.299072,260.097015 
	C219.085022,260.743500 218.385834,266.135040 218.722595,270.799438 
z"/>
<path fill="#E5E7EC" opacity="1.000000" stroke="none" 
	d="
M164.002991,386.123840 
	C161.863770,386.252472 159.724564,386.381104 156.500778,386.574951 
	C157.348999,389.729279 158.087143,392.474213 158.796310,395.884979 
	C159.942978,398.406860 160.714401,400.810242 162.362076,402.027161 
	C170.904007,408.336029 180.547852,406.492432 189.863419,404.651215 
	C192.635559,404.103241 196.400787,402.372742 195.921844,397.904480 
	C195.921844,397.904480 195.991257,397.972687 196.205872,397.856018 
	C196.613663,397.426697 196.806808,397.114044 196.999954,396.801392 
	C197.250458,396.335144 197.500977,395.868927 198.140884,395.030945 
	C198.630127,394.311707 198.729965,393.964203 198.829834,393.616699 
	C198.887238,393.248016 198.944641,392.879303 199.287811,392.098938 
	C199.801193,391.410309 199.850784,391.104401 199.722336,390.769562 
	C199.722336,390.769562 199.814545,390.777893 200.174698,390.863800 
	C203.344482,391.224426 203.441010,392.652466 201.939728,394.531158 
	C198.330826,399.047333 194.651123,403.506958 191.000000,407.989380 
	C189.579727,408.322327 188.159454,408.655273 186.186218,408.742676 
	C184.754639,408.668518 183.876007,408.839905 182.997391,409.011322 
	C181.285477,409.012848 179.573578,409.014404 177.160461,408.724609 
	C174.996628,408.286713 173.536987,408.090302 172.070847,408.001831 
	C163.654678,407.493927 155.454880,401.129120 154.689926,394.479218 
	C151.443802,396.635773 148.201538,398.798767 144.993774,400.640198 
	C145.673584,399.213623 146.318878,398.108551 147.250977,396.802490 
	C148.621964,393.206665 149.706116,389.811798 150.790253,386.416931 
	C150.745789,386.098724 150.701324,385.780487 151.081909,384.990662 
	C151.396378,382.023346 151.285812,379.527649 151.175232,377.031952 
	C150.861069,375.253143 150.546921,373.474304 150.541321,371.159485 
	C152.298126,369.904297 153.746353,369.185089 155.197830,368.464233 
	C155.874191,369.268768 156.580429,370.108856 157.286667,370.948944 
	C158.634628,373.912506 159.982590,376.876099 161.647675,380.393524 
	C162.644180,382.672882 163.323593,384.398346 164.002991,386.123840 
z"/>
<path fill="#F0F2F7" opacity="1.000000" stroke="none" 
	d="
M54.734787,357.057770 
	C55.189884,371.407196 55.277695,385.804382 55.478027,400.867493 
	C55.669827,401.710022 55.749104,401.886597 55.616844,402.279907 
	C57.289749,403.720764 59.037735,405.295807 61.088150,406.093109 
	C64.900970,407.575745 68.340912,407.496948 69.310669,402.099243 
	C69.825539,401.673431 70.065277,401.364014 70.500122,400.851562 
	C70.829124,400.106049 70.963020,399.563599 71.414024,399.016205 
	C72.153984,399.008728 72.576843,399.006195 73.167091,399.248169 
	C73.888695,399.661774 74.442909,399.830902 74.997116,400.000000 
	C75.567039,405.179047 72.766914,406.603882 68.273773,408.897766 
	C61.221325,412.498291 56.914135,410.153931 52.520958,405.628265 
	C51.194424,404.261749 50.100555,401.969513 50.117115,400.112183 
	C50.228088,387.669250 50.529663,375.222382 51.144371,362.795380 
	C51.240582,360.850372 53.245281,358.999786 54.734787,357.057770 
z"/>
<path fill="#788CD4" opacity="1.000000" stroke="none" 
	d="
M103.631523,275.026794 
	C113.304863,276.358368 122.984932,277.643250 132.649689,279.034424 
	C142.635681,280.471832 152.606827,282.012573 162.837250,283.545990 
	C162.837250,285.885651 162.837250,287.967194 162.837250,290.802948 
	C141.961914,286.244720 121.339294,281.741669 100.364273,276.683990 
	C100.034233,275.586853 100.056587,275.044342 100.078941,274.501831 
	C100.789024,274.594910 101.499115,274.687988 102.738205,274.893188 
	C103.267197,275.005280 103.631523,275.026794 103.631523,275.026794 
z"/>
<path fill="#020202" opacity="1.000000" stroke="none" 
	d="
M231.025574,295.289001 
	C228.087265,295.340729 225.647369,295.340729 222.979248,295.340729 
	C222.979248,283.309174 222.979248,271.768188 222.979248,259.874451 
	C225.926575,259.874451 228.800980,259.874451 231.524002,259.874451 
	C231.524002,271.644318 231.524002,283.440796 231.025574,295.289001 
z"/>
<path fill="#788CD4" opacity="1.000000" stroke="none" 
	d="
M103.057755,262.219879 
	C121.500107,264.862549 139.941299,267.513306 158.385559,270.142670 
	C163.478210,270.868622 163.816406,271.447479 162.408142,278.013458 
	C143.160751,273.803986 123.912796,269.594391 104.186119,264.854858 
	C103.490845,263.623260 103.274300,262.921570 103.057755,262.219879 
z"/>
<path fill="#F0F2F7" opacity="1.000000" stroke="none" 
	d="
M191.196762,408.240784 
	C194.651123,403.506958 198.330826,399.047333 201.939728,394.531158 
	C203.441010,392.652466 203.344482,391.224426 200.145615,390.899811 
	C200.191711,385.812958 199.750320,381.078674 195.106674,377.131561 
	C196.002090,374.391571 197.024857,372.271301 198.047607,370.151031 
	C198.157440,369.675995 198.267258,369.200928 198.562836,368.173096 
	C198.533768,367.074127 198.318985,366.527954 198.104202,365.981750 
	C194.384232,356.655182 186.121689,355.879730 177.404755,355.100067 
	C179.511597,351.366943 183.312820,353.601013 186.015381,353.842346 
	C192.536316,354.424622 197.286667,358.741180 201.088272,364.061035 
	C203.623367,367.608582 203.763992,371.132385 201.536438,374.684479 
	C200.369904,376.544708 199.937866,377.467865 201.723679,379.640381 
	C209.659271,389.294250 203.660034,405.586090 191.196762,408.240784 
z"/>
<path fill="#F0F2F7" opacity="1.000000" stroke="none" 
	d="
M95.228333,366.026123 
	C92.044975,358.480164 86.190399,355.668030 78.239372,355.991791 
	C71.807083,356.253754 65.354958,356.028503 58.448769,355.933350 
	C60.113461,355.015930 62.214848,353.571655 64.373962,353.479492 
	C68.989998,353.282440 73.649689,354.120056 78.266647,353.930023 
	C87.264755,353.559631 94.164871,357.505981 100.143997,363.850983 
	C106.752701,358.464050 112.854668,352.155121 122.768143,354.790527 
	C120.511024,355.717041 117.926849,356.159363 115.473732,356.989166 
	C109.718590,358.935791 104.867058,361.974945 102.683243,368.704468 
	C101.471428,369.367676 100.736023,369.684448 99.706505,369.875427 
	C98.609993,369.503021 97.807594,369.256439 96.769028,369.004089 
	C96.532852,368.998322 96.060425,368.991791 96.060425,368.991791 
	C95.958267,368.653870 95.856102,368.315979 95.798004,367.437988 
	C95.637489,366.607330 95.432915,366.316711 95.228333,366.026123 
z"/>
<path fill="#F4F4F4" opacity="1.000000" stroke="none" 
	d="
M144.959259,400.961731 
	C148.201538,398.798767 151.443802,396.635773 154.689926,394.479218 
	C155.454880,401.129120 163.654678,407.493927 172.070847,408.001831 
	C173.536987,408.090302 174.996628,408.286713 176.732635,408.728516 
	C174.553711,412.819763 171.049530,411.316803 168.392380,410.008118 
	C163.869720,407.780670 159.726624,404.767365 155.483444,401.993378 
	C152.979309,400.356323 151.269302,399.176392 148.506165,402.480835 
	C142.287857,409.917267 125.990540,413.448975 118.509674,409.398865 
	C122.264381,408.996857 125.803452,409.540558 129.081680,408.848572 
	C132.948837,408.032288 137.784775,408.757172 140.341522,403.966278 
	C142.107574,402.937286 143.533417,401.949493 144.959259,400.961731 
z"/>
<path fill="#F4F4F4" opacity="1.000000" stroke="none" 
	d="
M75.154961,399.685974 
	C74.442909,399.830902 73.888695,399.661774 73.168839,398.857605 
	C72.904922,394.038269 76.246086,393.573212 79.053688,393.095245 
	C84.272118,392.206909 89.263466,391.308380 93.438141,387.475586 
	C95.608170,385.483307 97.905403,384.798218 99.532761,389.266876 
	C100.973534,393.223114 101.399498,398.649658 107.047638,400.342438 
	C108.396812,401.784973 109.702515,402.886261 111.051346,404.322998 
	C112.730385,406.103577 114.366310,407.548737 116.002235,408.993896 
	C109.332657,408.549652 101.776375,402.315826 99.952332,395.752930 
	C99.082588,392.623627 94.692986,390.980774 90.812439,392.228699 
	C87.431885,393.315857 83.900070,394.013855 80.647018,395.386200 
	C78.661781,396.223663 77.077286,398.011108 75.154961,399.685974 
z"/>
<path fill="#F0F2F7" opacity="1.000000" stroke="none" 
	d="
M157.404633,370.598999 
	C156.580429,370.108856 155.874191,369.268768 155.197830,368.464233 
	C153.746353,369.185089 152.298126,369.904297 150.558792,370.775696 
	C147.006592,361.572357 140.401657,356.493988 130.272095,355.318359 
	C137.614243,353.140045 143.890671,355.708679 148.774475,361.459106 
	C151.195465,364.309723 152.787994,364.453033 155.626053,362.096741 
	C157.818710,360.276245 160.758850,359.356079 163.750214,358.074829 
	C162.139313,360.545319 160.144867,362.976624 157.784637,365.884125 
	C157.396484,367.171387 157.374100,367.982391 157.351715,368.793427 
	C157.408676,369.278625 157.465637,369.763824 157.404633,370.598999 
z"/>
<path fill="#8393D1" opacity="1.000000" stroke="none" 
	d="
M302.891571,273.993591 
	C308.306488,273.643036 313.244904,273.306793 318.183319,272.970551 
	C318.572754,273.375244 318.962158,273.779907 319.351562,274.184601 
	C318.379974,275.493927 317.378204,277.959198 316.441498,277.934723 
	C306.528564,277.675690 296.625977,277.020294 286.720551,276.474121 
	C286.711823,275.997070 286.703094,275.520020 286.694366,275.042999 
	C291.934601,274.697968 297.174835,274.352936 302.891571,273.993591 
z"/>
<path fill="#8393D1" opacity="1.000000" stroke="none" 
	d="
M298.611633,264.688477 
	C304.705139,264.244934 310.342133,263.750671 315.989716,263.539154 
	C319.882446,263.393341 318.942078,266.006134 318.486084,268.795929 
	C308.408417,268.224304 298.520264,267.663422 288.632111,267.102539 
	C288.595184,266.578796 288.558258,266.055054 288.521362,265.531311 
	C291.734100,265.273651 294.946869,265.015961 298.611633,264.688477 
z"/>
<path fill="#0D0D0D" opacity="1.000000" stroke="none" 
	d="
M228.785614,246.169128 
	C230.243698,247.004684 231.889557,247.674789 232.162628,248.707794 
	C232.647141,250.540649 232.298599,252.593719 232.298599,254.837708 
	C229.108505,254.837708 226.221405,254.837708 223.018433,254.837708 
	C223.018433,252.136108 223.018433,249.428528 223.018433,246.167160 
	C224.849365,246.167160 226.602173,246.167160 228.785614,246.169128 
z"/>
<path fill="#EBECF0" opacity="1.000000" stroke="none" 
	d="
M116.333908,408.997131 
	C114.366310,407.548737 112.730385,406.103577 111.448502,404.370331 
	C121.208931,406.626892 130.609894,407.121582 140.001297,404.007507 
	C137.784775,408.757172 132.948837,408.032288 129.081680,408.848572 
	C125.803452,409.540558 122.264381,408.996857 118.416389,409.003174 
	C117.549889,409.004364 117.107727,409.002380 116.333908,408.997131 
z"/>
<path fill="#333332" opacity="1.000000" stroke="none" 
	d="
M112.635719,286.958252 
	C112.675629,287.601898 112.377121,288.066040 112.018295,288.801208 
	C103.403397,287.416412 94.848816,285.760590 86.294243,284.104767 
	C86.381378,283.541107 86.468506,282.977478 86.555641,282.413849 
	C95.136200,283.868835 103.716751,285.323822 112.635719,286.958252 
z"/>
<path fill="#8393D1" opacity="1.000000" stroke="none" 
	d="
M102.764297,262.051392 
	C103.274300,262.921570 103.490845,263.623260 103.853043,264.660706 
	C97.144234,263.696594 90.289757,262.396729 83.435287,261.096863 
	C83.529541,260.490570 83.623802,259.884277 83.718063,259.277985 
	C89.968987,260.146301 96.219917,261.014618 102.764297,262.051392 
z"/>
<path fill="#8393D1" opacity="1.000000" stroke="none" 
	d="
M99.762589,274.329834 
	C100.056587,275.044342 100.034233,275.586853 100.009384,276.534241 
	C93.203728,275.641235 86.400558,274.343323 79.597389,273.045441 
	C79.683479,272.458160 79.769569,271.870880 79.855659,271.283600 
	C86.385849,272.241669 92.916039,273.199768 99.762589,274.329834 
z"/>
<path fill="#4A569D" opacity="1.000000" stroke="none" 
	d="
M361.679565,228.459686 
	C369.772278,228.453918 378.168365,228.753128 387.077698,229.076843 
	C379.054962,228.989105 370.518951,228.876892 361.679565,228.459686 
z"/>
<path fill="#4A569D" opacity="1.000000" stroke="none" 
	d="
M357.392548,210.422058 
	C357.986328,211.388596 358.782562,212.741562 358.940582,214.165359 
	C359.421478,218.498230 359.656036,222.858459 359.989380,227.635345 
	C359.322998,227.052216 358.163940,226.085632 358.068878,225.023819 
	C357.647034,220.311066 357.530273,215.571014 357.392548,210.422058 
z"/>
<path fill="#F0F2F7" opacity="1.000000" stroke="none" 
	d="
M174.797287,354.808044 
	C171.642822,356.090637 168.250671,357.075470 164.481796,358.106018 
	C165.333969,354.090759 167.086929,353.480164 174.797287,354.808044 
z"/>
<path fill="#F4F4F4" opacity="1.000000" stroke="none" 
	d="
M183.034393,409.315704 
	C183.876007,408.839905 184.754639,408.668518 185.816940,408.747345 
	C185.024200,409.205078 184.047791,409.412567 183.034393,409.315704 
z"/>
<path fill="#8393D1" opacity="1.000000" stroke="none" 
	d="
M103.611786,274.898193 
	C103.631523,275.026794 103.267197,275.005280 103.085968,274.979462 
	C103.091965,274.699890 103.321075,274.638550 103.611786,274.898193 
z"/>
<path fill="#E6E6E7" opacity="1.000000" stroke="none" 
	d="
M107.004173,400.001221 
	C101.399498,398.649658 100.973534,393.223114 99.532761,389.266876 
	C97.905403,384.798218 95.608170,385.483307 93.438141,387.475586 
	C89.263466,391.308380 84.272118,392.206909 79.053688,393.095245 
	C76.246086,393.573212 72.904922,394.038269 73.001442,398.613098 
	C72.576843,399.006195 72.153984,399.008728 71.385544,398.622070 
	C71.789474,392.648987 74.131851,390.051819 79.554703,390.075745 
	C87.499390,390.110779 92.747566,386.422211 95.935921,379.447021 
	C96.227493,378.809113 95.575905,377.740112 95.362289,376.871277 
	C95.468956,376.444489 95.575615,376.017700 96.121765,375.038300 
	C96.709229,372.660431 96.857208,370.835144 97.005188,369.009888 
	C97.807594,369.256439 98.609993,369.503021 99.705971,370.238037 
	C100.310486,371.820374 100.621422,372.914246 100.941544,374.378021 
	C100.902000,375.486053 100.853279,376.224152 100.581421,377.225281 
	C100.515152,379.001984 100.672020,380.515686 100.873474,382.354065 
	C100.914749,383.114868 100.911438,383.550995 100.671616,384.202301 
	C100.947006,385.278748 101.458923,386.140076 101.970840,387.001373 
	C101.970840,387.001373 102.196236,387.257507 102.149750,387.772217 
	C102.411964,388.853638 102.720680,389.420319 103.029388,389.987000 
	C103.029388,389.987000 102.997810,389.996765 102.991264,390.366669 
	C103.687363,391.802032 104.390007,392.867523 105.092651,393.932983 
	C105.092651,393.932983 105.013039,394.003815 105.018143,394.331177 
	C105.683556,396.439453 106.343864,398.220337 107.004173,400.001221 
z"/>
<path fill="#CED2E1" opacity="1.000000" stroke="none" 
	d="
M107.047638,400.342438 
	C106.343864,398.220337 105.683556,396.439453 105.048874,394.287842 
	C116.912445,405.161560 133.170944,406.060303 145.704346,396.215210 
	C146.404099,396.528229 146.684113,396.765839 146.964142,397.003479 
	C146.318878,398.108551 145.673584,399.213623 144.993774,400.640198 
	C143.533417,401.949493 142.107574,402.937286 140.341522,403.966278 
	C130.609894,407.121582 121.208931,406.626892 111.405380,404.034912 
	C109.702515,402.886261 108.396812,401.784973 107.047638,400.342438 
z"/>
<path fill="#EBECF0" opacity="1.000000" stroke="none" 
	d="
M135.222961,383.511169 
	C135.182541,384.147644 135.142136,384.784149 134.770798,385.854218 
	C134.199600,386.536591 134.099701,386.832764 134.140167,387.176361 
	C134.140167,387.176361 134.123734,387.037476 133.807465,387.085999 
	C132.987961,388.041016 132.484726,388.947540 131.981476,389.854065 
	C125.788399,393.192932 121.968918,392.394104 117.972618,386.130371 
	C118.187981,374.779541 119.923531,372.680206 129.334381,372.073853 
	C130.414566,372.458557 131.206131,372.710876 132.038269,373.347229 
	C133.126907,376.991211 134.174927,380.251190 135.222961,383.511169 
M131.930267,382.319183 
	C131.660858,381.201782 131.759567,379.604706 131.050354,379.060364 
	C129.206284,377.645081 126.520180,375.367096 125.076248,375.898041 
	C123.362907,376.527985 122.448990,379.670654 121.502472,381.860077 
	C121.180443,382.604950 121.556602,383.927582 122.058975,384.694611 
	C123.054588,386.214661 124.176216,388.361847 125.594200,388.675720 
	C126.771729,388.936401 128.552750,387.059113 129.866394,385.901886 
	C130.689819,385.176514 131.143234,384.031097 131.930267,382.319183 
z"/>
<path fill="#C6CADD" opacity="1.000000" stroke="none" 
	d="
M131.997681,372.963196 
	C131.206131,372.710876 130.414566,372.458557 129.283981,371.728973 
	C127.708717,370.766724 126.400963,369.750702 125.250946,369.905670 
	C122.744621,370.243317 120.318619,371.177155 117.859795,371.867371 
	C121.324326,364.955505 128.570053,364.242706 133.739868,370.753601 
	C132.984253,371.806274 132.490967,372.384735 131.997681,372.963196 
z"/>
<path fill="#D9DEE7" opacity="1.000000" stroke="none" 
	d="
M117.875809,371.873596 
	C120.318619,371.177155 122.744621,370.243317 125.250946,369.905670 
	C126.400963,369.750702 127.708717,370.766724 128.995346,371.596558 
	C119.923531,372.680206 118.187981,374.779541 117.933075,385.782410 
	C117.574615,382.448669 117.255043,378.668976 117.258278,374.246094 
	C117.683762,373.032104 117.786438,372.461243 117.889114,371.890411 
	C117.889114,371.890411 117.891830,371.879852 117.875809,371.873596 
z"/>
<path fill="#D9DEE7" opacity="1.000000" stroke="none" 
	d="
M132.038284,373.347229 
	C132.490967,372.384735 132.984253,371.806274 133.745361,371.112122 
	C134.581268,374.926788 135.149353,378.857208 135.470215,383.149384 
	C134.174927,380.251190 133.126907,376.991211 132.038284,373.347229 
z"/>
<path fill="#D9DEE7" opacity="1.000000" stroke="none" 
	d="
M147.250977,396.802490 
	C146.684113,396.765839 146.404099,396.528229 145.999573,396.039551 
	C147.338379,392.843567 148.801697,389.898590 150.527634,386.685272 
	C149.706116,389.811798 148.621964,393.206665 147.250977,396.802490 
z"/>
<path fill="#E5E7EC" opacity="1.000000" stroke="none" 
	d="
M100.932358,374.008118 
	C100.621422,372.914246 100.310486,371.820374 100.000084,370.363861 
	C100.736023,369.684448 101.471428,369.367676 102.506516,369.019653 
	C102.509140,370.407745 102.212082,371.827057 101.622765,373.608765 
	C101.330513,373.971100 100.932365,374.008118 100.932358,374.008118 
z"/>
<path fill="#E5E7EC" opacity="1.000000" stroke="none" 
	d="
M100.828888,382.029388 
	C100.672020,380.515686 100.515152,379.001984 100.698967,377.263123 
	C101.039642,377.037933 101.279564,377.078400 101.279564,377.078400 
	C101.368126,378.426727 101.456696,379.775085 101.325233,381.539490 
	C101.105202,381.955566 100.828888,382.029388 100.828888,382.029388 
z"/>
<path fill="#D9DEE7" opacity="1.000000" stroke="none" 
	d="
M151.108063,377.469971 
	C151.285812,379.527649 151.396378,382.023346 151.206696,384.772766 
	C150.951248,382.653656 150.996063,380.280823 151.108063,377.469971 
z"/>
<path fill="#E5E7EC" opacity="1.000000" stroke="none" 
	d="
M101.997787,386.628357 
	C101.458923,386.140076 100.947006,385.278748 100.866257,384.225525 
	C101.297424,384.033600 101.687271,384.044373 101.687271,384.044373 
	C101.799759,384.781372 101.912254,385.518341 101.997787,386.628357 
z"/>
<path fill="#CED2E1" opacity="1.000000" stroke="none" 
	d="
M105.044754,393.608643 
	C104.390007,392.867523 103.687363,391.802032 103.003998,390.355194 
	C103.681137,391.077301 104.338997,392.180817 105.044754,393.608643 
z"/>
<path fill="#D9DEE7" opacity="1.000000" stroke="none" 
	d="
M132.282501,389.775177 
	C132.484726,388.947540 132.987961,388.041016 133.844559,387.145264 
	C133.659790,388.002777 133.121658,388.849548 132.282501,389.775177 
z"/>
<path fill="#CED2E1" opacity="1.000000" stroke="none" 
	d="
M101.471527,376.721497 
	C101.279564,377.078400 101.039642,377.037933 100.922096,377.000122 
	C100.853279,376.224152 100.902000,375.486053 100.941544,374.378021 
	C100.932365,374.008118 101.330513,373.971100 101.530243,373.964325 
	C101.707817,374.759918 101.685654,375.562256 101.471527,376.721497 
z"/>
<path fill="#CED2E1" opacity="1.000000" stroke="none" 
	d="
M103.036606,389.657593 
	C102.720680,389.420319 102.411964,388.853638 102.157234,387.942657 
	C102.488754,388.174957 102.766296,388.751587 103.036606,389.657593 
z"/>
<path fill="#CED2E1" opacity="1.000000" stroke="none" 
	d="
M101.749802,383.680664 
	C101.687271,384.044373 101.297424,384.033600 101.102776,384.010376 
	C100.911438,383.550995 100.914749,383.114868 100.873474,382.354065 
	C100.828888,382.029388 101.105202,381.955566 101.246414,381.940247 
	C101.529182,382.388947 101.670753,382.852966 101.749802,383.680664 
z"/>
<path fill="#C6CADD" opacity="1.000000" stroke="none" 
	d="
M117.644928,372.068268 
	C117.786438,372.461243 117.683762,373.032104 117.354538,373.795837 
	C117.218903,373.407867 117.309822,372.826996 117.644928,372.068268 
z"/>
<path fill="#D9DEE7" opacity="1.000000" stroke="none" 
	d="
M134.371780,387.070557 
	C134.099701,386.832764 134.199600,386.536591 134.637146,386.150940 
	C134.757431,386.330933 134.680420,386.647858 134.371780,387.070557 
z"/>
<path fill="#C6CADD" opacity="1.000000" stroke="none" 
	d="
M197.582031,370.117004 
	C197.024857,372.271301 196.002090,374.391571 194.925293,376.842712 
	C189.493484,375.500977 184.072189,373.952698 178.760040,372.092621 
	C176.724777,371.379944 174.911896,369.994415 173.106995,368.756165 
	C172.999924,368.682678 173.779419,366.533844 174.299393,366.462280 
	C176.826187,366.114349 180.817703,365.053619 181.725494,366.228058 
	C186.063553,371.840210 191.796066,369.748962 197.582031,370.117004 
z"/>
<path fill="#D4D7E2" opacity="1.000000" stroke="none" 
	d="
M195.591812,398.028931 
	C196.400787,402.372742 192.635559,404.103241 189.863419,404.651215 
	C180.547852,406.492432 170.904007,408.336029 162.362076,402.027161 
	C160.714401,400.810242 159.942978,398.406860 158.903870,396.245789 
	C168.330521,404.468719 183.683121,405.406555 195.591812,398.028931 
z"/>
<path fill="#C6CADD" opacity="1.000000" stroke="none" 
	d="
M164.327560,386.321442 
	C163.323593,384.398346 162.644180,382.672882 161.950592,380.589172 
	C168.035553,382.142242 174.180359,383.924225 180.203720,386.050293 
	C181.832962,386.625336 183.094528,388.242065 184.524872,389.380676 
	C182.792618,390.298004 181.126633,391.800751 179.313766,392.005981 
	C175.945740,392.387238 172.475937,392.658325 170.653107,388.221863 
	C170.164673,387.033051 166.732758,387.053650 164.327560,386.321442 
z"/>
<path fill="#E5E7EC" opacity="1.000000" stroke="none" 
	d="
M157.528061,368.481720 
	C157.374100,367.982391 157.396484,367.171387 157.624176,366.196350 
	C157.787781,366.744873 157.746094,367.457458 157.528061,368.481720 
z"/>
<path fill="#C6CADD" opacity="1.000000" stroke="none" 
	d="
M198.063858,366.328064 
	C198.318985,366.527954 198.533768,367.074127 198.590958,367.804199 
	C198.296738,367.550201 198.160126,367.112305 198.063858,366.328064 
z"/>
<path fill="#D4D7E2" opacity="1.000000" stroke="none" 
	d="
M199.515686,390.901672 
	C199.850784,391.104401 199.801193,391.410309 199.383331,391.835083 
	C199.083862,391.648468 199.122513,391.332062 199.515686,390.901672 
z"/>
<path fill="#D4D7E2" opacity="1.000000" stroke="none" 
	d="
M198.598480,393.774963 
	C198.729965,393.964203 198.630127,394.311707 198.308136,394.824341 
	C198.179688,394.637390 198.273407,394.285278 198.598480,393.774963 
z"/>
<path fill="#D4D7E2" opacity="1.000000" stroke="none" 
	d="
M196.736572,396.904236 
	C196.806808,397.114044 196.613663,397.426697 196.159058,397.842773 
	C196.089478,397.633179 196.281326,397.320129 196.736572,396.904236 
z"/>
<path fill="#F7F7F7" opacity="1.000000" stroke="none" 
	d="
M385.974548,274.429138 
	C387.806000,267.494293 390.729553,266.239136 401.926849,267.339600 
	C401.926849,273.851257 401.926849,280.404816 401.926849,286.967651 
	C390.421356,289.716736 385.917633,286.309143 385.974548,274.429138 
z"/>
<path fill="#CED2E1" opacity="1.000000" stroke="none" 
	d="
M95.185211,377.128296 
	C95.575905,377.740112 96.227493,378.809113 95.935921,379.447021 
	C92.747566,386.422211 87.499390,390.110779 79.554703,390.075745 
	C74.131851,390.051819 71.789474,392.648987 71.068436,398.627045 
	C70.963020,399.563599 70.829124,400.106049 70.397583,400.394836 
	C70.074402,396.103119 70.048882,392.065033 70.023361,388.026978 
	C73.060379,387.733948 76.110100,387.101410 79.131912,387.214539 
	C86.731110,387.499084 92.151680,384.598419 95.185211,377.128296 
z"/>
<path fill="#C6CADD" opacity="1.000000" stroke="none" 
	d="
M70.214600,367.105194 
	C70.214592,367.105194 70.658485,367.049194 71.283493,367.016541 
	C74.588280,367.355865 77.268066,367.727875 79.947853,368.099854 
	C79.947853,368.099854 79.985184,368.031433 80.041748,368.315186 
	C80.368591,368.893127 80.638870,369.187347 80.909149,369.481567 
	C80.909157,369.481567 80.836105,369.749023 80.886658,370.268127 
	C80.923218,371.852325 80.909210,372.917450 80.895210,373.982574 
	C80.895210,373.982574 80.973907,373.958374 80.748680,373.962646 
	C80.523453,373.966949 80.109596,374.029663 79.694473,374.009857 
	C77.566429,373.657135 75.766953,372.853271 74.169212,373.146912 
	C72.985001,373.364563 72.062996,375.008759 71.123749,376.176331 
	C71.223297,376.335144 71.348213,376.688629 71.348213,376.688629 
	C71.127655,376.564972 70.907089,376.441315 70.363174,375.698242 
	C70.098076,372.420959 70.156334,369.763092 70.214600,367.105194 
z"/>
<path fill="#4A569D" opacity="1.000000" stroke="none" 
	d="
M69.718681,388.304626 
	C70.048882,392.065033 70.074402,396.103119 70.202469,400.597900 
	C70.065277,401.364014 69.825539,401.673431 68.850700,402.013428 
	C64.019859,402.050385 59.924122,402.056793 55.828381,402.063202 
	C55.749104,401.886597 55.669827,401.710022 55.633099,401.246094 
	C59.776447,400.710449 65.004272,401.873230 67.629005,399.776825 
	C69.811867,398.033386 68.935341,392.459473 69.718681,388.304626 
z"/>
<path fill="#4A569D" opacity="1.000000" stroke="none" 
	d="
M79.102158,376.102722 
	C77.098808,379.538727 74.358513,377.903351 71.548843,376.929901 
	C71.348213,376.688629 71.223297,376.335144 71.557358,376.273621 
	C74.261696,376.142487 76.631973,376.072876 79.027290,376.028076 
	C79.052322,376.052856 79.102158,376.102722 79.102158,376.102722 
z"/>
<path fill="#4A569D" opacity="1.000000" stroke="none" 
	d="
M69.831642,367.126831 
	C70.156334,369.763092 70.098076,372.420959 70.026474,375.523651 
	C69.037369,373.078857 66.725891,370.274719 69.831642,367.126831 
z"/>
<path fill="#4A569D" opacity="1.000000" stroke="none" 
	d="
M79.891853,367.706696 
	C77.268066,367.727875 74.588280,367.355865 71.492294,366.936279 
	C73.996010,367.030273 76.915932,367.171906 79.891853,367.706696 
z"/>
<path fill="#E5E7EC" opacity="1.000000" stroke="none" 
	d="
M96.769020,369.004089 
	C96.857208,370.835144 96.709229,372.660431 96.275787,374.745789 
	C95.971458,373.285126 95.952606,371.564392 95.997086,369.417725 
	C96.060425,368.991791 96.532852,368.998322 96.769020,369.004089 
z"/>
<path fill="#4A569D" opacity="1.000000" stroke="none" 
	d="
M81.178246,373.791992 
	C80.909210,372.917450 80.923218,371.852325 80.955864,370.388214 
	C81.136765,371.193298 81.299026,372.397339 81.178246,373.791992 
z"/>
<path fill="#4A569D" opacity="1.000000" stroke="none" 
	d="
M80.109604,374.029663 
	C80.109596,374.029663 80.523453,373.966949 80.728683,373.926666 
	C80.532341,374.567871 80.130768,375.249390 79.415680,376.016815 
	C79.102158,376.102722 79.052322,376.052856 79.184433,375.788391 
	C79.580894,375.025848 79.845253,374.527740 80.109604,374.029663 
z"/>
<path fill="#4A569D" opacity="1.000000" stroke="none" 
	d="
M80.852707,369.171021 
	C80.638870,369.187347 80.368591,368.893127 80.002884,368.312256 
	C80.203728,368.303894 80.499992,368.582184 80.852707,369.171021 
z"/>
<path fill="#E5E7EC" opacity="1.000000" stroke="none" 
	d="
M95.220703,366.301819 
	C95.432915,366.316711 95.637489,366.607330 95.840240,367.174500 
	C95.629974,367.159882 95.421524,366.868713 95.220703,366.301819 
z"/>
<path fill="#F2F2F2" opacity="1.000000" stroke="none" 
	d="
M262.746155,270.430481 
	C262.731262,276.030304 262.718872,281.170013 262.688751,286.309570 
	C262.686920,286.623077 262.544250,286.935730 262.283691,287.993225 
	C260.572357,287.993225 258.671539,288.026886 256.772217,287.987579 
	C247.156250,287.788544 242.754791,280.092987 247.329285,271.498199 
	C249.167191,268.045044 258.681824,265.526825 262.072327,267.721039 
	C262.572296,268.044586 262.533936,269.199860 262.746155,270.430481 
z"/>
<path fill="#F4F4F4" opacity="1.000000" stroke="none" 
	d="
M346.142761,279.659973 
	C346.440918,268.593201 350.179291,265.926971 362.599121,267.728577 
	C362.599121,274.252808 362.599121,280.820160 362.599121,287.379913 
	C352.274292,289.327972 347.926208,287.385681 346.142761,279.659973 
z"/>
<path fill="#D9DEE7" opacity="1.000000" stroke="none" 
	d="
M55.616844,402.279907 
	C59.924122,402.056793 64.019859,402.050385 68.575569,402.129822 
	C68.340912,407.496948 64.900970,407.575745 61.088150,406.093109 
	C59.037735,405.295807 57.289749,403.720764 55.616844,402.279907 
z"/>
<path fill="#F7F7F7" opacity="1.000000" stroke="none" 
	d="
M131.846466,382.696655 
	C131.143234,384.031097 130.689819,385.176514 129.866394,385.901886 
	C128.552750,387.059113 126.771729,388.936401 125.594200,388.675720 
	C124.176216,388.361847 123.054588,386.214661 122.058975,384.694611 
	C121.556602,383.927582 121.180443,382.604950 121.502472,381.860077 
	C122.448990,379.670654 123.362907,376.527985 125.076248,375.898041 
	C126.520180,375.367096 129.206284,377.645081 131.050354,379.060364 
	C131.759567,379.604706 131.660858,381.201782 131.846466,382.696655 
z"/>
<path fill="#D9DEE7" opacity="1.000000" stroke="none" 
	d="
M79.694473,374.009857 
	C79.845253,374.527740 79.580894,375.025848 79.159393,375.763611 
	C76.631973,376.072876 74.261696,376.142487 71.457802,376.114777 
	C72.062996,375.008759 72.985001,373.364563 74.169212,373.146912 
	C75.766953,372.853271 77.566429,373.657135 79.694473,374.009857 
z"/>
</svg>